<?xml version="1.0" encoding="UTF-8" standalone="no"?>
<!-- Created with Inkscape (http://www.inkscape.org/) -->

<svg
   width="50.799999mm"
   height="50.799999mm"
   viewBox="0 0 50.799999 50.799999"
   version="1.1"
   id="svg5"
   xml:space="preserve"
   inkscape:version="1.2.2 (b0a8486541, 2022-12-01)"
   sodipodi:docname="icon.svg"
   xmlns:inkscape="http://www.inkscape.org/namespaces/inkscape"
   xmlns:sodipodi="http://sodipodi.sourceforge.net/DTD/sodipodi-0.dtd"
   xmlns="http://www.w3.org/2000/svg"
   xmlns:svg="http://www.w3.org/2000/svg"><sodipodi:namedview
     id="namedview7"
     pagecolor="#ffffff"
     bordercolor="#000000"
     borderopacity="0.25"
     inkscape:showpageshadow="2"
     inkscape:pageopacity="0.0"
     inkscape:pagecheckerboard="0"
     inkscape:deskcolor="#d1d1d1"
     inkscape:document-units="mm"
     showgrid="false"
     inkscape:zoom="1.4464824"
     inkscape:cx="38.368941"
     inkscape:cy="98.51485"
     inkscape:window-width="1600"
     inkscape:window-height="900"
     inkscape:window-x="0"
     inkscape:window-y="0"
     inkscape:window-maximized="1"
     inkscape:current-layer="layer1" /><defs
     id="defs2" /><g
     inkscape:label="Layer 1"
     inkscape:groupmode="layer"
     id="layer1"><path
       style="fill:#000000;stroke-width:0.264583"
       d="m 21.30438,41.086677 c -2.470218,-0.664393 -5.049567,-2.19764 -7.068939,-4.202004 -2.245872,-2.229181 -2.601099,-2.798786 -2.139291,-3.430347 0.301413,-0.412205 0.483644,-0.35941 2.172561,0.629423 7.28709,4.266472 14.652636,4.268631 21.932345,0.0064 1.624505,-0.951129 1.877356,-1.028123 2.227276,-0.678206 0.349917,0.349919 0.309446,0.517795 -0.356487,1.478735 -1.878644,2.710889 -5.705929,5.348697 -9.008837,6.208995 -1.934977,0.503997 -5.860837,0.497406 -7.758628,-0.01302 z M 10.159138,27.327841 C 8.6562815,27.059855 7.3516495,26.609108 6.8898385,26.198306 c -0.839287,-0.746583 -1.534073,-2.419634 -2.313232,-5.57028 -0.698943,-2.826279 -0.83171,-3.115773 -1.949372,-4.250496 -1.242153,-1.261117 -1.547255,-2.301155 -0.84583,-2.883286 1.03062,-0.85534 13.1392835,-1.039107 17.3735665,-0.263671 2.821368,0.516685 8.752567,0.574765 11.419234,0.11182 4.74322,-0.823443 15.909026,-0.813589 18.070766,0.01595 0.25748,0.09881 0.40792,0.49027 0.40792,1.061491 0,0.734163 -0.22863,1.117898 -1.21138,2.033224 -1.06764,0.994396 -1.25654,1.343723 -1.59202,2.944165 -0.84065,4.010388 -1.74575,6.12985 -3.01744,7.065849 -1.02908,0.757438 -3.502393,1.099483 -6.61458,0.914759 -3.444299,-0.204438 -4.521539,-0.495003 -5.712767,-1.540915 -1.24846,-1.096162 -2.039493,-2.733207 -2.780004,-5.753226 -0.70903,-2.891633 -1.131279,-3.450428 -2.60728,-3.450428 -1.574381,0 -2.357804,0.464305 -2.639725,1.564466 -0.133763,0.521991 -0.435309,1.722982 -0.670104,2.668867 -0.83378,3.358931 -2.420094,5.471935 -4.555247,6.067684 -1.095659,0.305708 -6.418172,0.585264 -7.493206,0.393565 z"
       id="path1505" /><path
       style="fill:#ffcc4d;fill-opacity:1;stroke-width:1.6105"
       d="M 76.498831,188.33195 C 49.793295,182.57556 23.455951,162.04547 11.44762,137.62421 3.0361073,120.51778 -0.22483216,101.16565 2.3688623,83.746088 3.423967,76.659881 5.1417694,68.801111 6.1862008,66.282156 c 1.867475,-4.503969 1.9460589,-4.527882 4.7387362,-1.442007 1.561874,1.725851 4.313242,8.455111 6.114152,14.953912 3.828107,13.814186 7.136009,19.986385 11.866563,22.141769 4.785354,2.18035 34.844728,2.42258 40.361152,0.32524 7.522819,-2.860174 11.75692,-8.991444 16.145749,-23.380167 3.496822,-11.464284 4.788043,-13.79946 8.088347,-14.627784 6.55898,-1.646198 8.43283,0.307241 12.04996,12.561724 7.00238,23.723437 11.7896,27.185797 37.22964,26.926337 24.16742,-0.24647 26.91376,-2.41724 32.81899,-25.940751 1.48801,-5.927441 3.99372,-11.943041 5.56829,-13.368 2.67345,-2.419434 2.98198,-2.249089 4.66361,2.574854 0.99043,2.841129 2.62925,11.39327 3.64183,19.004756 3.68644,27.710541 -6.00772,54.525641 -27.47163,75.989551 -23.6744,23.67441 -54.20571,33.07644 -85.502759,26.33036 z m 44.241529,-35.90471 c 15.08426,-7.09559 33.16684,-27.61336 24.33603,-27.61336 -1.25649,0 -7.56819,2.53213 -14.026,5.62695 -6.45781,3.09482 -14.12648,6.07438 -17.0415,6.62124 -2.91501,0.54686 -5.30003,1.46333 -5.30003,2.0366 0,1.84646 -29.573958,-0.97932 -36.35103,-3.47333 -3.606213,-1.32711 -10.285835,-4.3026 -14.843601,-6.61219 -4.557767,-2.3096 -9.39803,-4.19927 -10.75614,-4.19927 -4.930504,0 -2.290006,6.44014 5.976963,14.57774 8.829339,8.69117 19.553745,15.01933 29.796594,17.58211 10.307651,2.57899 27.379354,0.54762 38.208714,-4.54649 z"
       id="path1071"
       transform="scale(0.26458333)" /><path
       style="fill:#ffcc4d;fill-opacity:1;stroke-width:1.6105"
       d="M 79.719834,49.660746 C 71.304963,48.629328 53.368,47.72342 39.859917,47.647619 23.974746,47.558479 15.299766,46.916546 15.299766,45.83021 c 0,-0.923775 5.978988,-7.711511 13.286639,-15.083858 C 48.706731,10.447895 69.541776,1.6762849 97.435353,1.7607572 123.38424,1.8393401 146.04211,12.197148 165.28128,32.775811 c 6.08776,6.51161 11.06866,12.405978 11.06866,13.098599 0,0.692619 -14.53346,1.545344 -32.29657,1.894945 -18.28463,0.359865 -32.78307,1.314847 -33.41791,2.201169 -1.49274,2.084048 -12.266243,1.976096 -30.915626,-0.309778 z"
       id="path1073"
       transform="scale(0.26458333)" /></g></svg>
